<mxfile host="app.diagrams.net" modified="2024-05-28T14:33:35.506Z" agent="Mozilla/5.0 (Windows NT 10.0; Win64; x64) AppleWebKit/537.36 (KHTML, like Gecko) Chrome/121.0.0.0 Safari/537.36" etag="_k7UHBb1Nw3UJ8MTzsaw" version="24.4.9" type="device">
  <diagram name="PÃ¡gina-1" id="VHfjoviFLWN6dKSU_FAR">
    <mxGraphModel dx="1434" dy="1941" grid="1" gridSize="10" guides="1" tooltips="1" connect="1" arrows="1" fold="1" page="1" pageScale="1" pageWidth="827" pageHeight="1169" math="0" shadow="0">
      <root>
        <mxCell id="0" />
        <mxCell id="1" parent="0" />
        <mxCell id="kLO0zqXkjtgV_XcwVPOn-1" value="" style="rounded=1;whiteSpace=wrap;html=1;" vertex="1" parent="1">
          <mxGeometry y="-180" width="800" height="450" as="geometry" />
        </mxCell>
        <mxCell id="kLO0zqXkjtgV_XcwVPOn-2" value="buscar produto&amp;nbsp;" style="text;html=1;align=center;verticalAlign=middle;whiteSpace=wrap;rounded=0;" vertex="1" parent="1">
          <mxGeometry x="340" y="-160" width="120" height="30" as="geometry" />
        </mxCell>
        <mxCell id="kLO0zqXkjtgV_XcwVPOn-3" value="" style="rounded=0;whiteSpace=wrap;html=1;" vertex="1" parent="1">
          <mxGeometry x="161.25" y="-90" width="477.5" height="30" as="geometry" />
        </mxCell>
        <mxCell id="kLO0zqXkjtgV_XcwVPOn-5" value="" style="shape=singleArrow;direction=south;whiteSpace=wrap;html=1;arrowWidth=0.4;arrowSize=0.45;" vertex="1" parent="1">
          <mxGeometry x="638.75" y="-95" width="30" height="40" as="geometry" />
        </mxCell>
      </root>
    </mxGraphModel>
  </diagram>
</mxfile>
